<svg xmlns="http://www.w3.org/2000/svg" viewBox="0 0 446 190"><defs><style>.cls-1{fill:#fff;}</style></defs><g id="Слой_3" data-name="Слой 3"><path class="cls-1" d="M213.73,58.72a74.7,74.7,0,0,0,6-21.42,74.65,74.65,0,0,0-21.49-5.48,74.77,74.77,0,0,0-5.52-22,74.64,74.64,0,0,0-21.95,6.28A75,75,0,0,0,155.31.28a74.78,74.78,0,0,0-15.49,15.87,74.64,74.64,0,0,0-21.95-6.28,74.41,74.41,0,0,0-5.52,22,74.77,74.77,0,0,0-21.5,5.48A74.85,74.85,0,0,0,97,58.9,74.63,74.63,0,0,0,80.74,74.64S97.41,97.86,118,97.86c20.23,0,36.69-22.48,37.22-23.2l.12.08.16-.12.08,0c2.12,2.81,17.87,22.88,37,22.88,20.56,0,37.23-23.21,37.23-23.21A74.69,74.69,0,0,0,213.73,58.72ZM114.65,34.15a29.06,29.06,0,0,1,17.44,3.19v.17c0,8.54,4,16.41,8.69,22.69-6.28-4.71-14.16-8.75-22.72-8.78A29.27,29.27,0,0,1,114.65,34.15ZM154,30.48v0c-4.44,7.69-4.77,16.91-3.71,24.91-3.08-7.43-8-15.19-15.61-19.61l-.39-.21a28.9,28.9,0,0,1,6.27-16.7A29.18,29.18,0,0,1,154,30.48ZM169.93,19.3a29,29,0,0,1,6,16.53c-7.64,4.41-12.51,12.17-15.6,19.59,1.05-7.87.75-16.91-3.48-24.52A29.37,29.37,0,0,1,169.93,19.3Zm23.25,31.82h-.64c-8.27,0-15.9,3.75-22.08,8.24,4.41-6.14,8.06-13.68,8.06-21.84v-.17a29,29,0,0,1,17.79-3.14A29.17,29.17,0,0,1,193.18,51.12ZM147.69,61.76c-7.59-3.6-13.06-12.56-13.41-23.18C143.31,44.17,148.35,53.38,147.69,61.76Zm28.22-22.91c-.42,10.31-5.68,19-13,22.71C162.35,53.37,167.22,44.42,175.91,38.85ZM192,53.29c-5.68,9.33-15.2,14.48-23.76,13.59C171.81,59.08,181.06,53.48,192,53.29ZM155.42,59c-4.37-6.82-4.54-16.82.12-25.84C160.14,42.2,159.89,52.21,155.42,59Zm-13.35,7.75c-8.21.53-17.17-4.37-22.73-13.11C129.69,54.05,138.42,59.36,142.07,66.73Zm-25.69-13c5.93,10.28,17.92,15.57,27,18.2-6.72,7.48-19.68,8.64-30.8,2.23A29.35,29.35,0,0,1,99.72,59.63a29,29,0,0,1,16.61-6A.56.56,0,0,0,116.38,53.72Zm77.86,0,.21-.38A29,29,0,0,1,211,59.45,29.31,29.31,0,0,1,198,74.15c-11.11,6.41-24.08,5.25-30.8-2.23C176.32,69.29,188.3,64,194.24,53.72Zm15.84-10.59a18.38,18.38,0,0,1,1.56,14.2,38,38,0,0,0-16.14-6.06,37.7,37.7,0,0,0,2.93-16.63A18.47,18.47,0,0,1,210.08,43.13Zm-22.8-23.37a18.49,18.49,0,0,1,8.55,11.9,38,38,0,0,0-17.47,2.9,38.07,38.07,0,0,0-6.05-16.14A18.59,18.59,0,0,1,187.28,19.76ZM155.1,11.58a18.43,18.43,0,0,1,13.18,5.85,37.16,37.16,0,0,0-13,11.07,37.36,37.36,0,0,0-13.25-11.21A18.4,18.4,0,0,1,155.1,11.58Zm-31.4,8a18.58,18.58,0,0,1,14.77-1.4,38.26,38.26,0,0,0-6.22,16.41,38,38,0,0,0-17.15-2.92A18.55,18.55,0,0,1,123.7,19.55ZM100.53,43.13a18.49,18.49,0,0,1,11.66-8.49,37.36,37.36,0,0,0,3.07,16.92,37.64,37.64,0,0,0-16.23,6A18.44,18.44,0,0,1,100.53,43.13ZM118,95.27C103.65,95.27,92,85.94,92,74.43a18.49,18.49,0,0,1,6-13.34C101.12,67,105.44,72.53,111.49,76c10.08,5.82,22.8,4.57,31.94,2.39C141.11,88,130.6,95.27,118,95.27ZM192.54,95c-12.49,0-22.92-7.09-25.38-16.54,9.14,2.19,21.87,3.44,32-2.38,6.09-3.52,10.43-9.17,13.51-15.08a18.46,18.46,0,0,1,5.83,13.17C218.47,85.63,206.86,95,192.54,95Z"/><path class="cls-1" d="M158,167.31q0,8.79,2.57,12a8.5,8.5,0,0,0,7,3.18,16.31,16.31,0,0,0,3.4-.45,28.61,28.61,0,0,0,4-1.22,36.39,36.39,0,0,0,5.83-3.59l1.89,2.69a39.2,39.2,0,0,1-9.24,7.19,21.79,21.79,0,0,1-10.6,2.65q-6.66,0-10.44-3.79t-3.79-11.05V124.17H138v-2.88q7.56-2.12,11.35-7.42T154.8,99H158v18.47H182.2v6.66H158Z"/><path class="cls-1" d="M201.31,147.33c-.3,1.52-.45-1.87-.45-.15s.1,3.93.3,6.66q.76,11.5,7.12,19.3t17.41,7.8a27.38,27.38,0,0,0,13.09-3c3.69-2,5.57-4.86,8-7.79l3.29,1.81a38.13,38.13,0,0,1-11.43,12.65,27.31,27.31,0,0,1-16.12,5.07,26.83,26.83,0,0,1-12-2.73,29.5,29.5,0,0,1-9.61-7.57,36.52,36.52,0,0,1-6.43-11.35,41.57,41.57,0,0,1-2.35-14.23,56.21,56.21,0,0,1,2.42-17.11A39.71,39.71,0,0,1,201,124a28.33,28.33,0,0,1,9.92-8,27.7,27.7,0,0,1,12.18-2.72,28.59,28.59,0,0,1,9.09,1.51,25,25,0,0,1,8.17,4.54,24.39,24.39,0,0,1,5.91,8c1.51,3.18,2.32,11.94,2.42,16.28a5.72,5.72,0,0,1-.46,2.65,3,3,0,0,1-2.27,1.13Zm32.4-4.84a7.2,7.2,0,0,0,3.94-.83,3.54,3.54,0,0,0,1.21-3.11c0-1.61-.38-8.33-1.14-10.15a16.22,16.22,0,0,0-8.25-8.78,15.49,15.49,0,0,0-7-1.51c-5.75,0-10.26,3.5-13.74,7.08s-5.89,11.55-7,17.3Z"/><path class="cls-1" d="M266.44,87.23a41.85,41.85,0,0,0-.37-6.29,7.25,7.25,0,0,0-1.59-3.7,5,5,0,0,0-3.11-1.52,37.07,37.07,0,0,0-5.22-.3v-3a48.16,48.16,0,0,0,9.46-2.8c3.08-1.26,10.83-5.07,10.83-5.07-.31,2.72-.51,5.63-.61,8.7s-.15,5.83-.15,8.26V171.7c0,4.24.7,7.24,2.12,9s4.34,2.65,8.78,2.65v3.78q-3.33,0-7.5-.07t-8.25-.08h-8.25q-4,0-7,.15v-3.78q6.82,0,8.86-2.35t2-9.31Z"/><path class="cls-1" d="M305.57,87.23a41.64,41.64,0,0,0-.38-6.29,7.09,7.09,0,0,0-1.59-3.7,5,5,0,0,0-3.1-1.52,37.33,37.33,0,0,0-5.23-.3v-3a48.16,48.16,0,0,0,9.46-2.8c3.08-1.26,10.83-5.07,10.83-5.07-.3,2.72-.51,5.63-.61,8.7s-.15,5.83-.15,8.26V171.7q0,6.36,2.12,9t8.78,2.65v3.78q-3.33,0-7.49-.07T310,187h-8.25c-2.68,0-5,0-7,.15v-3.78q6.81,0,8.85-2.35t2.05-9.31Z"/><path class="cls-1" d="M355.92,173.22q0,6.51,2.12,8.32c1.42,1.21,4.34,1.82,8.78,1.82v3.78h-3.93q-1.81,0-3.63-.15c-1.22,0-2.45,0-3.71-.07s-2.6-.08-4-.08-2.9,0-4.16.08-2.5.07-3.71.07-2.6,0-3.86.08-2.6.07-4,.07v-3.78q6.66,0,8.78-1.82t2.12-8.32V137.13a55.45,55.45,0,0,0-.3-6.51,9,9,0,0,0-1.21-3.79,4.41,4.41,0,0,0-2.73-1.81,46.93,46.93,0,0,0-8-1.46v-4.18c3.22-.5,9.18-1.26,11.85-2.27s10.22-3.69,10.22-3.69c-.3,2.72-.48,5.63-.53,8.7s-.08,5.83-.08,8.25Zm-13.41-79a7.35,7.35,0,0,1,2.2-5.29,7,7,0,0,1,5.22-2.28,7.78,7.78,0,0,1,7.57,7.57,7.05,7.05,0,0,1-2.27,5.23,7.4,7.4,0,0,1-5.3,2.19,7.5,7.5,0,0,1-7.42-7.42Z"/><path class="cls-1" d="M445.83,181.39a58,58,0,0,1-7,5.75,13,13,0,0,1-7.5,2.58,6.68,6.68,0,0,1-5.82-3.33q-2.21-3.33-2.5-9.69a47.23,47.23,0,0,1-12.42,9.46,30.35,30.35,0,0,1-14.23,3.56,16,16,0,0,1-11.5-4.47A14,14,0,0,1,380.43,174a15.45,15.45,0,0,1,3.4-9.61,28.59,28.59,0,0,1,9-7,84.4,84.4,0,0,1,13.32-5.6q7.72-2.58,16.81-5.45V135.82a18.3,18.3,0,0,0-3.11-11q-3.11-4.32-12-4.32a17.59,17.59,0,0,0-11.06,3.66c-3.28,2.48-5.19,5.53-5.29,9.06,0,2.42.25,4.84-.71,5.94a4.46,4.46,0,0,1-4.29,1c-3.71-1-2.8-8.36.08-13.32,6.21-10.7,16.21-14.7,27.63-13.47,4.81.51,9.05,1.46,12.64,4.39s5.37,7.17,5.37,12.71v41.33c0,5.66,1.24,8.88,3.71,9.69s5-.72,8.86-3.35ZM423,151.2c-11.11,3.33-19.41,5.44-24.91,8.32s-8.25,6.53-8.25,11q0,7,3.56,9.46t9.92,2.5c3.73,0,7.31-2,10.75-4a39.39,39.39,0,0,0,8.93-7.11Z"/><path class="cls-1" d="M77.77,173.14a17.61,17.61,0,0,1-4.33,5.22,17,17,0,0,1-7.11,3.18,51.47,51.47,0,0,1-10.6.91H45.29a77.5,77.5,0,0,1-10.07-.53,12.21,12.21,0,0,1-6-2.19,7,7,0,0,1-2.95-4.47,35.53,35.53,0,0,1-.69-7.8V131.74H48.31a24.66,24.66,0,0,1,6,.6A6.54,6.54,0,0,1,58,134.76a10,10,0,0,1,1.89,4.7,46.57,46.57,0,0,1,.53,7.87h3.64V111.45H60.42q0,8.17-2.65,11t-9.31,2.88H25.6V78.75h22a64.6,64.6,0,0,1,11,.76,14.46,14.46,0,0,1,6.66,2.72,11.91,11.91,0,0,1,3.71,6,57.39,57.39,0,0,1,1.74,10.07H73.9V74.21q-17.12.45-36.34.45T.17,74.21v3.93a44.07,44.07,0,0,1,7.5.53,10,10,0,0,1,4.61,1.9A7.84,7.84,0,0,1,14.78,85a33.66,33.66,0,0,1,.68,7.57v74.93q0,9.54-2.87,12.72T.17,183.36v3.78q18.63-.3,38.91-.3,19.56,0,38.69.29Z"/><path class="cls-1" d="M128.92,160.42a21,21,0,0,0-4-5.67,25.61,25.61,0,0,0-5.9-4.39q-3.33-1.81-6.81-3.49-3.65-1.5-7.12-3.18a39.81,39.81,0,0,1-6.21-3.63,18.59,18.59,0,0,1-4.39-4.77A11.54,11.54,0,0,1,92.82,129a9.13,9.13,0,0,1,4.39-7.95,18,18,0,0,1,10.29-3q7.73,0,11.51,4.16t4.84,11.89H127l-1.21-16.65a31.43,31.43,0,0,0-8.55-3.26,38.37,38.37,0,0,0-8.1-1A25.94,25.94,0,0,0,99.4,115a24.82,24.82,0,0,0-7.34,4.46A21,21,0,0,0,87.37,126a18,18,0,0,0-1.67,7.57,17,17,0,0,0,5.6,12.95,62.16,62.16,0,0,0,13.33,9.31l6.2,3.25a27.68,27.68,0,0,1,5.3,3.56,17.27,17.27,0,0,1,3.71,4.46,11.79,11.79,0,0,1,1.44,6,12.25,12.25,0,0,1-3.26,8.26q-3.26,3.7-11.88,3.7a17.15,17.15,0,0,1-8.4-1.81,15.11,15.11,0,0,1-5.22-4.7,20.92,20.92,0,0,1-2.62-5.32H86.77V184.9a32.48,32.48,0,0,0,8.47,3.45,37.88,37.88,0,0,0,9.69,1.37,32.29,32.29,0,0,0,11.35-1.82,22.17,22.17,0,0,0,8-5,18.77,18.77,0,0,0,4.69-7,22.15,22.15,0,0,0,1.51-8A16.88,16.88,0,0,0,128.92,160.42Z"/><path class="cls-1" d="M77.77,173.19h-3s-4.36,8.14-13.68,9.07-.32-.07-.32-.07l14,2,2-9Z"/></g></svg>