<svg xmlns="http://www.w3.org/2000/svg" xmlns:xlink="http://www.w3.org/1999/xlink" viewBox="0,0,256,256" width="48px" height="48px"><g fill="#ffffff" fill-rule="nonzero" stroke="none" stroke-width="1" stroke-linecap="butt" stroke-linejoin="miter" stroke-miterlimit="10" stroke-dasharray="" stroke-dashoffset="0" font-family="none" font-weight="none" font-size="none" text-anchor="none" style="mix-blend-mode: normal"><g transform="scale(4,4)"><path d="M51,46c1.104,0 2,0.895 2,2c0,1.105 -0.896,2 -2,2c-0.601,0 -37.399,0 -38,0c-1.104,0 -2,-0.895 -2,-2c0,-1.105 0.896,-2 2,-2c0.601,0 37.399,0 38,0zM51,30c1.104,0 2,0.895 2,2c0,1.105 -0.896,2 -2,2c-0.601,0 -37.399,0 -38,0c-1.104,0 -2,-0.895 -2,-2c0,-1.105 0.896,-2 2,-2c0.601,0 37.399,0 38,0zM51,14c1.104,0 2,0.895 2,2c0,1.105 -0.896,2 -2,2c-0.601,0 -37.399,0 -38,0c-1.104,0 -2,-0.895 -2,-2c0,-1.105 0.896,-2 2,-2c0.601,0 37.399,0 38,0z"></path></g></g></svg>